<?xml version="1.0" encoding="utf-8"?>
<svg version="1.1" xmlns:xlink="http://www.w3.org/1999/xlink" width="26px" height="26px" xmlns="http://www.w3.org/2000/svg">
  <g transform="matrix(1 0 0 1 -1490 -135 )">
    <path d="M 15.9453125 15.9453125  C 17.315104166666742 14.575520833333343  18 12.927083333333314  18 11  C 18 9.072916666666657  17.315104166666742 7.424479166666686  15.9453125 6.0546875  C 14.575520833333258 4.684895833333314  12.927083333333258 4  11 4  C 9.072916666666742 4  7.424479166666743 4.684895833333314  6.0546875 6.0546875  C 4.6848958333332575 7.424479166666686  4 9.072916666666657  4 11  C 4 12.927083333333314  4.6848958333332575 14.575520833333343  6.0546875 15.9453125  C 7.424479166666743 17.315104166666657  9.072916666666742 18  11 18  C 12.927083333333258 18  14.575520833333258 17.315104166666657  15.9453125 15.9453125  Z M 25.421875 22.59375  C 25.807291666666742 22.979166666666657  26 23.447916666666686  26 24  C 26 24.541666666666657  25.802083333333258 25.010416666666657  25.40625 25.40625  C 25.010416666666742 25.802083333333314  24.541666666666742 26  24 26  C 23.4375 26  22.96875 25.802083333333314  22.59375 25.40625  L 17.234375 20.0625  C 15.369791666666742 21.354166666666657  13.291666666666744 22  11 22  C 9.510416666666742 22  8.0859375 21.7109375  6.7265625 21.1328125  C 5.3671875 20.5546875  4.1953125 19.7734375  3.2109375 18.7890625  C 2.2265625 17.8046875  1.4453125 16.6328125  0.8671875 15.2734375  C 0.2890625 13.9140625  0 12.489583333333314  0 11  C 0 9.510416666666657  0.2890625 8.0859375  0.8671875 6.7265625  C 1.4453125 5.3671875  2.2265625 4.1953125  3.2109375 3.2109375  C 4.1953125 2.2265625  5.3671875 1.4453125  6.7265625 0.8671875  C 8.0859375 0.2890625  9.510416666666742 0  11 0  C 12.489583333333485 0  13.9140625 0.2890625  15.2734375 0.8671875  C 16.6328125 1.4453125  17.8046875 2.2265625  18.7890625 3.2109375  C 19.7734375 4.1953125  20.5546875 5.3671875  21.1328125 6.7265625  C 21.7109375 8.0859375  22 9.510416666666657  22 11  C 22 13.291666666666686  21.354166666666742 15.369791666666655  20.0625 17.234375  L 25.421875 22.59375  Z " fill-rule="nonzero" fill="#333333" stroke="none" transform="matrix(1 0 0 1 1490 135 )" />
  </g>
</svg>