<?xml version="1.0" encoding="utf-8"?>
<svg version="1.1" xmlns:xlink="http://www.w3.org/1999/xlink" width="27px" height="24px" xmlns="http://www.w3.org/2000/svg">
  <g transform="matrix(1 0 0 1 -1560 -135 )">
    <path d="M 7.29241071428578 17.931818181818187  C 7.573660714285779 18.25  7.71428571428578 18.636363636363626  7.71428571428578 19.090909090909093  L 7.71428571428578 22.363636363636374  C 7.71428571428578 22.818181818181813  7.573660714285779 23.20454545454544  7.29241071428578 23.52272727272728  C 7.011160714285552 23.840909090909093  6.66964285714289 24  6.267857142857338 24  L 1.4464285714284415 24  C 1.0446428571428896 24  0.703125 23.840909090909093  0.421875 23.52272727272728  C 0.140625 23.20454545454544  0 22.818181818181813  0 22.363636363636374  L 0 19.090909090909093  C 0 18.636363636363626  0.140625 18.25  0.421875 17.931818181818187  C 0.703125 17.613636363636374  1.0446428571428896 17.45454545454544  1.4464285714284415 17.45454545454544  L 6.267857142857338 17.45454545454544  C 6.66964285714289 17.45454545454544  7.011160714285552 17.613636363636374  7.29241071428578 17.931818181818187  Z M 7.29241071428578 9.204545454545467  C 7.573660714285779 9.52272727272728  7.71428571428578 9.909090909090907  7.71428571428578 10.363636363636374  L 7.71428571428578 13.636363636363626  C 7.71428571428578 14.090909090909093  7.573660714285779 14.47727272727272  7.29241071428578 14.795454545454533  C 7.011160714285552 15.113636363636374  6.66964285714289 15.27272727272728  6.267857142857338 15.27272727272728  L 1.4464285714284415 15.27272727272728  C 1.0446428571428896 15.27272727272728  0.703125 15.113636363636374  0.421875 14.795454545454533  C 0.140625 14.47727272727272  0 14.090909090909093  0 13.636363636363626  L 0 10.363636363636374  C 0 9.909090909090907  0.140625 9.52272727272728  0.421875 9.204545454545467  C 0.703125 8.886363636363626  1.0446428571428896 8.72727272727272  1.4464285714284415 8.72727272727272  L 6.267857142857338 8.72727272727272  C 6.66964285714289 8.72727272727272  7.011160714285552 8.886363636363626  7.29241071428578 9.204545454545467  Z M 26.578125 17.931818181818187  C 26.859375 18.25  27 18.636363636363626  27 19.090909090909093  L 27 22.363636363636374  C 27 22.818181818181813  26.859375 23.20454545454544  26.578125 23.52272727272728  C 26.296875 23.840909090909093  25.95535714285711 24  25.55357142857156 24  L 11.08928571428578 24  C 10.6875 24  10.34598214285711 23.840909090909093  10.064732142857338 23.52272727272728  C 9.78348214285711 23.20454545454544  9.642857142857338 22.818181818181813  9.642857142857338 22.363636363636374  L 9.642857142857338 19.090909090909093  C 9.642857142857338 18.636363636363626  9.78348214285711 18.25  10.064732142857338 17.931818181818187  C 10.34598214285711 17.613636363636374  10.6875 17.45454545454544  11.08928571428578 17  L 25.55357142857156 17  C 25.95535714285711 17.45454545454544  26.296875 17.613636363636374  26.578125 17.931818181818187  Z M 7.29241071428578 0.4772727272727195  C 7.573660714285779 0.7954545454545325  7.71428571428578 1.181818181818187  7.71428571428578 1.636363636363626  L 7.71428571428578 4.9090909090909065  C 7.71428571428578 5.363636363636374  7.573660714285779 5.75  7.29241071428578 6.068181818181813  C 7.011160714285552 6.386363636363626  6.66964285714289 6.5454545454545325  6.267857142857338 6.5454545454545325  L 1.4464285714284415 6.5454545454545325  C 1.0446428571428896 6.5454545454545325  0.703125 6.386363636363626  0.421875 6.068181818181813  C 0.140625 5.75  0 5.363636363636374  0 4.9090909090909065  L 0 1.636363636363626  C 0 1.181818181818187  0.140625 0.7954545454545325  0.421875 0.4772727272727195  C 0.703125 0.1590909090909065  1.0446428571428896 0  1.4464285714284415 0  L 6.267857142857338 0  C 6.66964285714289 0  7.011160714285552 0.1590909090909065  7.29241071428578 0.4772727272727195  Z M 26.578125 9.204545454545467  C 26.859375 9.52272727272728  27 9.909090909090907  27 10.363636363636374  L 27 13.636363636363626  C 27 14.090909090909093  26.859375 14.47727272727272  26.578125 14.795454545454533  C 26.296875 15.113636363636374  25.95535714285711 15.27272727272728  25.55357142857156 15.27272727272728  L 16.888872755259627 15.27272727272728  L 11.08928571428578 15.27272727272728  C 10.6875 15.27272727272728  10.34598214285711 15.113636363636374  10.064732142857338 14.795454545454533  C 9.78348214285711 14.47727272727272  9.642857142857338 14.090909090909093  9.642857142857338 13.636363636363626  L 9.642857142857338 10.363636363636374  C 9.642857142857338 9.909090909090907  9.78348214285711 9.52272727272728  10.064732142857338 9.204545454545467  C 10.34598214285711 8.886363636363626  10.6875 8.72727272727272  11.08928571428578 9  L 25.55357142857156 9  C 25.95535714285711 8.72727272727272  26.296875 8.886363636363626  26.578125 9.204545454545467  Z M 26.578125 0.4772727272727195  C 26.859375 0.7954545454545325  27 1.181818181818187  27 1.636363636363626  L 27 4.9090909090909065  C 27 5.363636363636374  26.859375 5.75  26.578125 6.068181818181813  C 26.296875 6.386363636363626  25.95535714285711 6.5454545454545325  25.55357142857156 7  L 11.08928571428578 7  C 10.6875 6.5454545454545325  10.34598214285711 6.386363636363626  10.064732142857338 6.068181818181813  C 9.78348214285711 5.75  9.642857142857338 5.363636363636374  9.642857142857338 4.9090909090909065  L 9.642857142857338 1.636363636363626  C 9.642857142857338 1.181818181818187  9.78348214285711 0.7954545454545325  10.064732142857338 0.4772727272727195  C 10.34598214285711 0.1590909090909065  10.6875 0  11.08928571428578 0  L 25.55357142857156 0  C 25.95535714285711 0  26.296875 0.1590909090909065  26.578125 0.4772727272727195  Z " fill-rule="nonzero" fill="#333333" stroke="none" transform="matrix(1 0 0 1 1560 135 )" />
  </g>
</svg>